<?xml version="1.0" encoding="UTF-8" standalone="no"?><!DOCTYPE svg PUBLIC "-//W3C//DTD SVG 1.1//EN" "http://www.w3.org/Graphics/SVG/1.1/DTD/svg11.dtd"><svg width="100%" height="100%" viewBox="0 0 250 250" version="1.1" xmlns="http://www.w3.org/2000/svg" xmlns:xlink="http://www.w3.org/1999/xlink" xml:space="preserve" xmlns:serif="http://www.serif.com/" style="fill-rule:evenodd;clip-rule:evenodd;stroke-linejoin:round;stroke-miterlimit:2;"><rect id="icon-crutches" x="0" y="0" width="250" height="250" style="fill:none;"/><clipPath id="_clip1"><rect id="icon-crutches1" serif:id="icon-crutches" x="0" y="0" width="250" height="250"/></clipPath><g clip-path="url(#_clip1)"><g id="Disability_Ins"><path d="M97.268,144.911c-0.353,1.224 -0.024,2.561 0.864,3.506c0.889,0.928 2.209,1.329 3.466,1.032l12.272,-2.857l-13.272,-13.312l-3.33,11.631Z" style="fill:#00d3ff;fill-rule:nonzero;"/><path d="M130.688,97.946l20.108,20.173l12.944,-12.168l-20.116,-20.188l-12.936,12.183Z" style="fill:#00d3ff;fill-rule:nonzero;"/><path d="M243.716,203.802c-4.25,-4.258 -11.159,-4.274 -15.425,-0.024l-6.468,6.436l-34.957,-35.109l-8.549,-34.093l-14.825,13.937l0.168,0.664c0.608,2.418 -0.112,4.971 -1.881,6.716c-1.769,1.745 -4.339,2.426 -6.741,1.785l-0.992,-0.264l-15.249,14.489l35.525,9.366l34.917,35.061l-6.46,6.42c-2.049,2.041 -3.21,4.819 -3.21,7.716c-0.008,2.89 1.145,5.668 3.178,7.725l0.16,0.168c4.251,4.267 11.159,4.275 15.434,0.024l25.503,-25.399c2.049,-2.042 3.202,-4.827 3.21,-7.709c0,-2.898 -1.145,-5.675 -3.186,-7.725l-0.152,-0.184Z" style="fill:#00d3ff;fill-rule:nonzero;"/><path d="M28.802,96.842l5.235,-5.227l32.252,32.379l5.563,-19.484l0.048,-0.056l-3.458,-3.482l32.764,-32.644l4.395,4.435l12.943,-12.191l-26.56,-26.656l5.724,-5.732c5.195,-5.163 4.17,-14.577 -2.274,-21.053c-6.443,-6.483 -15.873,-7.524 -21.052,-2.345l-68.922,68.634c-5.187,5.163 -4.178,14.6 2.265,21.068c6.452,6.46 15.874,7.525 21.077,2.354Zm53.312,-47.677l12.816,12.864l-32.764,32.627l-12.831,-12.863l32.779,-32.628Z" style="fill:#00d3ff;fill-rule:nonzero;"/><path d="M217.796,91.655l5.067,5.395c5.028,5.323 14.489,4.587 21.149,-1.665c6.652,-6.244 7.957,-15.642 2.93,-20.989l-66.64,-70.843c-5.019,-5.323 -14.497,-4.586 -21.141,1.681c-6.644,6.268 -7.965,15.642 -2.946,20.973l5.532,5.884l-12.936,12.183l-69.098,65.023l-14.409,50.487l-2.97,10.398l-36.061,33.94l-6.092,-6.475c-4.219,-4.491 -11.263,-4.699 -15.745,-0.497l-1.77,1.665c-3.41,3.21 -3.57,8.573 -0.36,11.984l26.328,27.984c1.985,2.114 4.723,3.338 7.613,3.435c2.889,0.096 5.699,-0.977 7.804,-2.962c2.154,-2.026 3.411,-4.819 3.499,-7.773c0.088,-2.954 -1.001,-5.828 -3.026,-7.965l-6.084,-6.476l36.046,-33.924l10.502,-2.45l50.831,-11.855l69.042,-64.983l12.935,-12.175Zm-90.678,60.956l-28.386,6.612c-3.306,0.777 -6.764,-0.256 -9.101,-2.721c-2.337,-2.458 -3.202,-5.964 -2.273,-9.214l8.109,-28.393l55.969,-52.672l31.691,33.669l-56.009,52.719Zm62.469,-58.803l-31.699,-33.677l13.24,-12.447l31.691,33.684l-13.232,12.44Z" style="fill:#00d3ff;fill-rule:nonzero;"/></g></g></svg>